<svg xmlns="http://www.w3.org/2000/svg" xmlns:xlink="http://www.w3.org/1999/xlink" width="188.398" height="94.71" viewBox="0 0 188.398 94.71">
    <defs>
        <style>
            .cls-1{fill:url(#linear-gradient)}.cls-2{fill:url(#linear-gradient-2)}.cls-3{fill:url(#linear-gradient-3)}.cls-4{fill:url(#linear-gradient-4)}.cls-5{fill:#fff}
        </style>
        <linearGradient id="linear-gradient" x2="1" y1=".5" y2=".5" gradientUnits="objectBoundingBox">
            <stop offset="0" stop-color="#38ef7d"/>
            <stop offset="1" stop-color="#11998e"/>
        </linearGradient>
        <linearGradient id="linear-gradient-2" x2="1" y1=".5" y2=".5" gradientUnits="objectBoundingBox">
            <stop offset="0" stop-color="#11998e"/>
            <stop offset="1" stop-color="#21cc7e"/>
        </linearGradient>
        <linearGradient id="linear-gradient-3" x2="1" y1=".5" y2=".5" gradientUnits="objectBoundingBox">
            <stop offset="0" stop-color="#11998e"/>
            <stop offset="1" stop-color="#38ef7d"/>
        </linearGradient>
        <linearGradient id="linear-gradient-4" x1=".627" x2=".242" y1=".353" y2=".78" xlink:href="#linear-gradient"/>
    </defs>
    <g id="Group_1230" data-name="Group 1230">
        <g id="Group_1226" data-name="Group 1226">
            <path id="Path_11518" d="M362.342 8221.391c-5.269.448-9.506 2.473-16.511 4.614-1.233.378-11.189 2.692-17.647 2.262a16.3 16.3 0 0 1-2.9-.436 4.666 4.666 0 0 0-5.773 4.491v.072c0 3.243.627 6.5 2.6 8.789 2.481 2.88 6.543 4.246 10.684 4.054h.048c3.418.187 20.294-5.094 27.214-5.6 4.98-.366 9.088 4.006 9.088 8.948a9.179 9.179 0 0 1-5.629 8.273c-3.26 1.48-10.182 3.787-10.182 3.787l-3.086 1.83-14.157 8.619a4.7 4.7 0 0 0-2.03 3.193l-1.087 7.042a4.7 4.7 0 0 0 .044 1.674l.487 2.356a4.644 4.644 0 0 1 .092 1.189c-.07 1.441-.2 4.841.322 2.564.651-2.841 4.669-4.6 5.76-5.177 10.4-5.531 33.165-14.526 35.006-15.251.081-.032.159-.067.238-.1a24.751 24.751 0 0 0-10.183-47.316c-.81 0-1.611.046-2.4.119" class="cls-1" data-name="Path 11518" transform="translate(-319.514 -8221.271)"/>
            <path id="Path_11519" d="M353.345 8259.733l-19.518 12.184-.971 6.318.328 10.622a1.851 1.851 0 0 0 .282-.589c.649-2.839 4.63-4.5 5.721-5.082 10.827-5.754 35.06-15.27 35.06-15.27a24.71 24.71 0 0 0 14.659-22.574 27.208 27.208 0 0 0-1.918-9.56c-.555 27.361-33.644 23.95-33.644 23.95" class="cls-2" data-name="Path 11519" transform="translate(-318.929 -8220.635)"/>
            <path id="Path_11520" d="M352.865 8259.471l-4.592 2.565-7.85 4.65-7.9 15.507.541 2.608s-.361 5.986.289 3.15 4.661-4.59 5.752-5.167c10.83-5.761 26.144-11.884 35.06-15.273 6.52-2.475 11.312-8.294 13.474-15-13.017 18.126-34.773 6.956-34.773 6.956" class="cls-3" data-name="Path 11520" transform="translate(-318.944 -8219.902)"/>
            <path id="Path_11521" d="M347.411 8248.341c-9.271 3.808-19.662 11.294-23.962 25.993-4.752 16.235-.514 28.529 10.49 39.3a4.044 4.044 0 0 0 6.576-4.395c-3.42-8.664-5.151-20.192-1.033-34.25a50.474 50.474 0 0 1 11.9-20.848 3.612 3.612 0 0 0-2.557-6.087 3.664 3.664 0 0 0-1.41.29" class="cls-4" data-name="Path 11521" transform="translate(-319.426 -8220.098)"/>
        </g>
        <g id="Group_1229" data-name="Group 1229" transform="translate(58.285 53.908)">
            <g id="Group_1227" data-name="Group 1227">
                <path id="Path_11522" d="M384.76 8291.148h-5.248v7.984h-4.161v-25.679h9.409q8.734 0 8.734 8.623 0 4.422-2.193 6.746t-6.541 2.326zm-5.248-3.6h5.211q4.5 0 4.5-5.472a5.593 5.593 0 0 0-1.087-3.824 4.39 4.39 0 0 0-3.411-1.2h-5.211z" class="cls-5" data-name="Path 11522" transform="translate(-375.351 -8272.892)"/>
                <path id="Path_11523" d="M397.005 8298.857v-18.743h4.049v2.251a17.794 17.794 0 0 1 6.373-2.662v4.086a26.328 26.328 0 0 0-5.51 1.649l-.825.338v13.081z" class="cls-5" data-name="Path 11523" transform="translate(-374.402 -8272.618)"/>
                <path id="Path_11524" d="M411.792 8281.745q1.931-2.437 6.429-2.437t6.429 2.438q1.931 2.436 1.93 7.309t-1.874 7.349q-1.876 2.474-6.485 2.473t-6.485-2.473q-1.874-2.476-1.874-7.349t1.93-7.31zm3.055 12.184q.861 1.5 3.374 1.5t3.374-1.5a10.371 10.371 0 0 0 .862-4.911 9.369 9.369 0 0 0-.919-4.836 4.576 4.576 0 0 0-6.635 0 9.369 9.369 0 0 0-.919 4.836 10.371 10.371 0 0 0 .863 4.911z" class="cls-5" data-name="Path 11524" transform="translate(-373.838 -8272.635)"/>
                <path id="Path_11525" d="M443.7 8283.581a53.883 53.883 0 0 0-6.41-.6 5.709 5.709 0 0 0-2.755.469 1.608 1.608 0 0 0-.769 1.482 1.455 1.455 0 0 0 .844 1.422 18.879 18.879 0 0 0 3.973.956 9.159 9.159 0 0 1 4.443 1.707q1.311 1.162 1.312 4.122a5.031 5.031 0 0 1-1.893 4.349 9.28 9.28 0 0 1-5.529 1.387 33.349 33.349 0 0 1-5.772-.636l-1.163-.188.15-3.411a55.685 55.685 0 0 0 6.485.6 5.985 5.985 0 0 0 2.83-.489 1.71 1.71 0 0 0 .843-1.611 1.6 1.6 0 0 0-.806-1.555 15.931 15.931 0 0 0-3.861-.937 10.246 10.246 0 0 1-4.479-1.595q-1.426-1.084-1.425-3.973a4.976 4.976 0 0 1 1.968-4.312 8.4 8.4 0 0 1 5.043-1.424 35.773 35.773 0 0 1 5.885.6l1.162.225z" class="cls-5" data-name="Path 11525" transform="translate(-372.967 -8272.634)"/>
                <path id="Path_11526" d="M462.316 8285.494v8.546a1.778 1.778 0 0 0 .431 1.22 2.093 2.093 0 0 0 1.218.506l-.113 3.109a7.883 7.883 0 0 1-4.985-1.387 14.247 14.247 0 0 1-6.035 1.387q-5.587 0-5.586-5.959a5.1 5.1 0 0 1 1.518-4.123 8.288 8.288 0 0 1 4.667-1.539l4.836-.41v-1.35a2.268 2.268 0 0 0-2.587-2.7q-2.4 0-6 .3l-1.2.076-.15-2.886a32.508 32.508 0 0 1 7.517-.977q3.429 0 4.948 1.48t1.521 4.707zm-8.4 4.646a2.523 2.523 0 0 0-2.587 2.813q0 2.587 2.287 2.587a14.467 14.467 0 0 0 3.974-.6l.674-.224v-4.987z" class="cls-5" data-name="Path 11526" transform="translate(-372.199 -8272.635)"/>
                <path id="Path_11527" d="M467.32 8298.28v-5.4h4.386v5.4z" class="cls-5" data-name="Path 11527" transform="translate(-371.319 -8272.041)"/>
                <path id="Path_11528" d="M490.9 8285.494v8.546a1.788 1.788 0 0 0 .431 1.22 2.1 2.1 0 0 0 1.218.506l-.112 3.109a7.884 7.884 0 0 1-4.986-1.387 14.24 14.24 0 0 1-6.035 1.387q-5.585 0-5.585-5.959a5.1 5.1 0 0 1 1.518-4.123 8.288 8.288 0 0 1 4.667-1.539l4.836-.41v-1.35a2.269 2.269 0 0 0-2.587-2.7q-2.4 0-6 .3l-1.2.076-.15-2.886a32.5 32.5 0 0 1 7.516-.977q3.431 0 4.949 1.48t1.52 4.707zm-8.4 4.646a2.523 2.523 0 0 0-2.587 2.813q0 2.587 2.287 2.587a14.465 14.465 0 0 0 3.973-.6l.675-.224v-4.987z" class="cls-5" data-name="Path 11528" transform="translate(-370.946 -8272.635)"/>
                <path id="Path_11529" d="M496.086 8277.227v-4.311h4.086v4.311zm0 21.93v-18.744h4.086v18.744z" class="cls-5" data-name="Path 11529" transform="translate(-370.058 -8272.916)"/>
            </g>
            <g id="Group_1228" data-name="Group 1228" transform="translate(0 32.038)">
                <path id="Path_11530" d="M375.351 8312.352l2.394-8.32h1.736l2.383 8.32h-.731l-.67-2.3h-3.712l-.658 2.3zm2.932-7.673l-1.353 4.716h3.353l-1.353-4.716z" class="cls-5" data-name="Path 11530" transform="translate(-375.351 -8303.589)"/>
                <path id="Path_11531" d="M383.447 8312.352v-8.32h.742v8.32z" class="cls-5" data-name="Path 11531" transform="translate(-374.996 -8303.589)"/>
                <path id="Path_11532" d="M390.666 8307.02v5.351h-.718v-5.351h-.778v-.635h.778v-.61a2.994 2.994 0 0 1 .348-1.719 1.474 1.474 0 0 1 1.233-.447l1.162.059v.61a34.216 34.216 0 0 0-1.054-.024.846.846 0 0 0-.766.313 2.461 2.461 0 0 0-.2 1.219v.6h1.808v.635z" class="cls-5" data-name="Path 11532" transform="translate(-374.745 -8303.608)"/>
                <path id="Path_11533" d="M393.62 8309.139a3.876 3.876 0 0 1 .568-2.394 3.014 3.014 0 0 1 3.879 0 3.875 3.875 0 0 1 .569 2.394 4.216 4.216 0 0 1-.521 2.407 3.1 3.1 0 0 1-3.969 0 4.185 4.185 0 0 1-.526-2.407zm.742-.019a4.116 4.116 0 0 0 .329 1.964q.329.543 1.436.544t1.443-.549a4.066 4.066 0 0 0 .335-1.959 3.492 3.492 0 0 0-.377-1.927 2.138 2.138 0 0 0-2.789-.006 3.489 3.489 0 0 0-.377 1.933z" class="cls-5" data-name="Path 11533" transform="translate(-374.55 -8303.5)"/>
                <path id="Path_11534" d="M400.478 8312.259v-5.985h.706v.861a6.6 6.6 0 0 1 1.083-.6 5.082 5.082 0 0 1 1.18-.382v.718a6.461 6.461 0 0 0-1.077.33 7.809 7.809 0 0 0-.874.389l-.312.179v4.489z" class="cls-5" data-name="Path 11534" transform="translate(-374.25 -8303.497)"/>
                <path id="Path_11535" d="M408.173 8304.031h2.957q2.454 0 2.454 2.1a1.886 1.886 0 0 1-1.1 1.939 1.859 1.859 0 0 1 1.377 1.975 2.169 2.169 0 0 1-.652 1.784 2.957 2.957 0 0 1-1.9.526h-3.137zm2.933.659h-2.191v3.1h2.3a1.406 1.406 0 0 0 1.616-1.592 1.429 1.429 0 0 0-.425-1.15 1.992 1.992 0 0 0-1.3-.358zm.119 3.747h-2.31v3.256h2.385a2.112 2.112 0 0 0 1.341-.371 1.579 1.579 0 0 0 .467-1.3q-.003-1.586-1.883-1.584z" class="cls-5" data-name="Path 11535" transform="translate(-373.912 -8303.589)"/>
                <path id="Path_11536" d="M419.819 8307.942v3.206q.047.444.778.529l-.035.573a1.732 1.732 0 0 1-1.353-.479 5.611 5.611 0 0 1-2.25.491 1.565 1.565 0 0 1-1.221-.461 1.89 1.89 0 0 1-.419-1.316 1.693 1.693 0 0 1 .425-1.27 2.217 2.217 0 0 1 1.334-.51l2.036-.2v-.562a1.321 1.321 0 0 0-.293-.963 1.054 1.054 0 0 0-.784-.295 17.76 17.76 0 0 0-1.987.144l-.371.036-.036-.575a12.631 12.631 0 0 1 2.3-.251 1.886 1.886 0 0 1 1.43.468 2.022 2.022 0 0 1 .446 1.435zm-3.759 2.5q0 1.21.994 1.209a5.093 5.093 0 0 0 .946-.1 6.136 6.136 0 0 0 .813-.211l.3-.107v-2.167l-1.951.2a1.243 1.243 0 0 0-.845.335 1.217 1.217 0 0 0-.257.842z" class="cls-5" data-name="Path 11536" transform="translate(-373.599 -8303.5)"/>
                <path id="Path_11537" d="M422.687 8312.365h-.706v-8.643h.706v3a4.594 4.594 0 0 1 1.939-.465 1.755 1.755 0 0 1 1.6.632 4.719 4.719 0 0 1 .4 2.324v3.147h-.718v-3.112a4.51 4.51 0 0 0-.257-1.862q-.258-.485-1.12-.484a4.043 4.043 0 0 0-.879.1 4.185 4.185 0 0 0-.713.21l-.252.095z" class="cls-5" data-name="Path 11537" transform="translate(-373.307 -8303.604)"/>
                <path id="Path_11538" d="M432.8 8307.942v3.206q.047.444.778.529l-.036.573a1.733 1.733 0 0 1-1.353-.479 5.607 5.607 0 0 1-2.251.491 1.567 1.567 0 0 1-1.221-.461 1.89 1.89 0 0 1-.419-1.316 1.693 1.693 0 0 1 .425-1.27 2.22 2.22 0 0 1 1.335-.51l2.034-.2v-.562a1.316 1.316 0 0 0-.293-.963 1.052 1.052 0 0 0-.784-.295 17.759 17.759 0 0 0-1.987.144l-.371.036-.036-.575a12.613 12.613 0 0 1 2.3-.251 1.891 1.891 0 0 1 1.431.468 2.027 2.027 0 0 1 .448 1.435zm-3.759 2.5q0 1.21.994 1.209a5.093 5.093 0 0 0 .946-.1 6.2 6.2 0 0 0 .814-.211l.3-.107v-2.167l-1.951.2a1.243 1.243 0 0 0-.844.335 1.217 1.217 0 0 0-.258.842z" class="cls-5" data-name="Path 11538" transform="translate(-373.03 -8303.5)"/>
                <path id="Path_11539" d="M436.785 8306.7q-1.414 0-1.413 1.018a.711.711 0 0 0 .312.659 4.751 4.751 0 0 0 1.406.377 3.928 3.928 0 0 1 1.545.508 1.446 1.446 0 0 1 .449 1.239 1.548 1.548 0 0 1-.587 1.342 2.926 2.926 0 0 1-1.724.425 10.986 10.986 0 0 1-1.7-.169l-.348-.046.048-.635a14.779 14.779 0 0 0 2.059.2 2.1 2.1 0 0 0 1.119-.253.92.92 0 0 0 .4-.848.856.856 0 0 0-.329-.8 4.644 4.644 0 0 0-1.413-.365 3.8 3.8 0 0 1-1.526-.479 1.342 1.342 0 0 1-.443-1.173 1.39 1.39 0 0 1 .611-1.258 2.717 2.717 0 0 1 1.508-.395 13.029 13.029 0 0 1 1.8.156l.324.048-.024.635a14.666 14.666 0 0 0-2.074-.186z" class="cls-5" data-name="Path 11539" transform="translate(-372.752 -8303.499)"/>
                <path id="Path_11540" d="M444.992 8307.942v3.206q.047.444.778.529l-.036.573a1.733 1.733 0 0 1-1.353-.479 5.611 5.611 0 0 1-2.25.491 1.565 1.565 0 0 1-1.221-.461 1.89 1.89 0 0 1-.419-1.316 1.693 1.693 0 0 1 .425-1.27 2.217 2.217 0 0 1 1.335-.51l2.034-.2v-.562a1.321 1.321 0 0 0-.293-.963 1.054 1.054 0 0 0-.784-.295 17.759 17.759 0 0 0-1.987.144l-.371.036-.037-.575a12.632 12.632 0 0 1 2.3-.251 1.886 1.886 0 0 1 1.43.468 2.022 2.022 0 0 1 .449 1.435zm-3.759 2.5q0 1.21.994 1.209a5.093 5.093 0 0 0 .946-.1 6.136 6.136 0 0 0 .813-.211l.3-.107v-2.167l-1.951.2a1.243 1.243 0 0 0-.844.335 1.217 1.217 0 0 0-.258.842z" class="cls-5" data-name="Path 11540" transform="translate(-372.495 -8303.5)"/>
                <path id="Path_11541" d="M450.388 8312.352v-8.32h.742v8.32z" class="cls-5" data-name="Path 11541" transform="translate(-372.061 -8303.589)"/>
                <path id="Path_11542" d="M454.237 8312.259h-.707v-5.985h.707v.443a3.978 3.978 0 0 1 1.951-.562 1.754 1.754 0 0 1 1.6.634 4.71 4.71 0 0 1 .4 2.322v3.148h-.718v-3.113a4.4 4.4 0 0 0-.263-1.86 1.166 1.166 0 0 0-1.125-.485 3.374 3.374 0 0 0-.88.126 3.592 3.592 0 0 0-.712.257l-.252.12z" class="cls-5" data-name="Path 11542" transform="translate(-371.924 -8303.497)"/>
                <path id="Path_11543" d="M464.7 8303.608v8.642h-.718v-.441a3.7 3.7 0 0 1-1.915.562 2.649 2.649 0 0 1-.766-.1 1.85 1.85 0 0 1-.659-.4 3.176 3.176 0 0 1-.682-2.387 4.393 4.393 0 0 1 .574-2.557 2.255 2.255 0 0 1 1.939-.777 10.52 10.52 0 0 1 1.508.154v-2.691zm-3.082 8.03a1.589 1.589 0 0 0 .575.085 2.965 2.965 0 0 0 .813-.132 5.5 5.5 0 0 0 .724-.251l.252-.131v-4.287a10.9 10.9 0 0 0-1.484-.144 1.524 1.524 0 0 0-1.406.623 3.717 3.717 0 0 0-.389 1.927 2.966 2.966 0 0 0 .467 2 1.277 1.277 0 0 0 .452.311z" class="cls-5" data-name="Path 11543" transform="translate(-371.642 -8303.608)"/>
                <path id="Path_11544" d="M466.547 8309.139a3.875 3.875 0 0 1 .568-2.394 3.014 3.014 0 0 1 3.879 0 3.875 3.875 0 0 1 .569 2.394 4.216 4.216 0 0 1-.521 2.407 3.1 3.1 0 0 1-3.969 0 4.185 4.185 0 0 1-.526-2.407zm.742-.019a4.116 4.116 0 0 0 .329 1.964q.329.543 1.436.544t1.443-.549a4.066 4.066 0 0 0 .335-1.959 3.492 3.492 0 0 0-.377-1.927 2.138 2.138 0 0 0-2.789-.006 3.489 3.489 0 0 0-.377 1.933z" class="cls-5" data-name="Path 11544" transform="translate(-371.353 -8303.5)"/>
                <path id="Path_11545" d="M474.111 8312.259h-.706v-5.985h.706v.443a3.985 3.985 0 0 1 1.952-.562 1.755 1.755 0 0 1 1.6.634 4.709 4.709 0 0 1 .4 2.322v3.148h-.718v-3.113a4.4 4.4 0 0 0-.263-1.86 1.167 1.167 0 0 0-1.125-.485 3.374 3.374 0 0 0-.88.126 3.631 3.631 0 0 0-.713.257l-.252.12z" class="cls-5" data-name="Path 11545" transform="translate(-371.052 -8303.497)"/>
                <path id="Path_11546" d="M484.065 8311.546l.359-.037.024.586a19.015 19.015 0 0 1-2.287.169 2.056 2.056 0 0 1-1.807-.767 4.167 4.167 0 0 1-.516-2.322q0-3.136 2.467-3.137a2.22 2.22 0 0 1 1.771.676 3.26 3.26 0 0 1 .587 2.16l-.024.576h-4.07a2.846 2.846 0 0 0 .377 1.634 1.475 1.475 0 0 0 1.293.532q.916 0 1.826-.07zm-3.5-2.694h3.376a2.807 2.807 0 0 0-.389-1.688 1.475 1.475 0 0 0-1.244-.5 1.61 1.61 0 0 0-1.3.521 2.557 2.557 0 0 0-.439 1.667z" class="cls-5" data-name="Path 11546" transform="translate(-370.77 -8303.5)"/>
                <path id="Path_11547" d="M488.266 8306.7q-1.412 0-1.412 1.018a.71.71 0 0 0 .311.659 4.773 4.773 0 0 0 1.407.377 3.927 3.927 0 0 1 1.544.508 1.443 1.443 0 0 1 .449 1.239 1.546 1.546 0 0 1-.587 1.342 2.923 2.923 0 0 1-1.723.425 10.984 10.984 0 0 1-1.7-.169l-.348-.046.048-.635a14.793 14.793 0 0 0 2.059.2 2.1 2.1 0 0 0 1.119-.253.921.921 0 0 0 .4-.848.856.856 0 0 0-.33-.8 4.626 4.626 0 0 0-1.412-.365 3.79 3.79 0 0 1-1.526-.479 1.342 1.342 0 0 1-.444-1.173 1.39 1.39 0 0 1 .611-1.258 2.719 2.719 0 0 1 1.508-.395 13.016 13.016 0 0 1 1.8.156l.324.048-.024.635a14.64 14.64 0 0 0-2.074-.186z" class="cls-5" data-name="Path 11547" transform="translate(-370.495 -8303.499)"/>
                <path id="Path_11548" d="M492.339 8304.872v-.9h.707v.9zm0 7.482v-5.985h.707v5.985z" class="cls-5" data-name="Path 11548" transform="translate(-370.222 -8303.592)"/>
                <path id="Path_11549" d="M499.444 8307.942v3.206q.047.444.778.529l-.035.573a1.733 1.733 0 0 1-1.353-.479 5.611 5.611 0 0 1-2.25.491 1.564 1.564 0 0 1-1.221-.461 1.89 1.89 0 0 1-.42-1.316 1.7 1.7 0 0 1 .425-1.27 2.223 2.223 0 0 1 1.335-.51l2.036-.2v-.562a1.321 1.321 0 0 0-.293-.963 1.054 1.054 0 0 0-.784-.295 17.744 17.744 0 0 0-1.987.144l-.372.036-.036-.575a12.632 12.632 0 0 1 2.3-.251 1.888 1.888 0 0 1 1.43.468 2.022 2.022 0 0 1 .447 1.435zm-3.76 2.5q0 1.21.994 1.209a5.084 5.084 0 0 0 .946-.1 6.115 6.115 0 0 0 .814-.211l.3-.107v-2.167l-1.951.2a1.241 1.241 0 0 0-.845.335 1.212 1.212 0 0 0-.258.842z" class="cls-5" data-name="Path 11549" transform="translate(-370.108 -8303.5)"/>
            </g>
        </g>
    </g>
</svg>
